<svg width="1677" height="263" viewBox="0 0 1677 263" version="1.1" xmlns="http://www.w3.org/2000/svg" xmlns:xlink="http://www.w3.org/1999/xlink"><defs><linearGradient x1="96.562%" y1="52.889%" x2="100.875%" y2="47.325%" id="c"><stop stop-color="#FFDBAB" offset="0%"/><stop stop-color="#FDD9A8" offset="25.38%"/><stop stop-color="#F7D1A0" offset="40.54%"/><stop stop-color="#EDC592" offset="52.98%"/><stop stop-color="#E3B985" offset="60.53%"/><stop stop-color="#DBAE7D" offset="63.55%"/><stop stop-color="#CC966E" offset="71.16%"/><stop stop-color="#C18663" offset="79.32%"/><stop stop-color="#BA7C5C" offset="88.36%"/><stop stop-color="#B8795A" offset="100%"/></linearGradient><linearGradient x1="39.463%" y1="59.145%" x2="59.944%" y2="43.764%" id="f"><stop stop-color="#C09871" offset="0%"/><stop stop-color="#BD9671" offset="41.93%"/><stop stop-color="#B59171" offset="66.98%"/><stop stop-color="#A78872" offset="87.53%"/><stop stop-color="#9A8072" offset="100%"/></linearGradient><linearGradient x1="101.335%" y1="119.348%" x2="101.335%" y2="-2.276%" id="g"><stop stop-color="#361A17" offset="0%"/><stop stop-color="#AC6134" offset="52.73%"/><stop stop-color="#F0B07A" offset="100%"/></linearGradient><linearGradient x1="101.336%" y1="120.381%" x2="101.336%" y2="-2.292%" id="h"><stop stop-color="#361A17" offset="0%"/><stop stop-color="#AC6134" offset="52.73%"/><stop stop-color="#F0B07A" offset="100%"/></linearGradient><linearGradient x1="104.875%" y1="135.582%" x2="104.875%" y2="0%" id="i"><stop stop-color="#361A17" offset="0%"/><stop stop-color="#AC6134" offset="52.73%"/><stop stop-color="#F0B07A" offset="100%"/></linearGradient><linearGradient x1="99.832%" y1="37.049%" x2="59.748%" y2="69.73%" id="j"><stop stop-color="#000000" offset="0%"/><stop stop-color="#000000" stop-opacity=".01" offset="100%"/></linearGradient><path id="a" d="M0 0h1683v316H0z"/><path d="M53.853 199.024C260.697 158.477 1037.97 6.166 1051.93 4.248c16.11-2.213 30.12-11.886 121.57 15 91.45 26.887 147.88 22.952 151.48 23.526l99.66-36.395s19.41-8.525 47.72 2.05c28.32 10.574 143.38 24.509 239.83 6.475v241.198H.746l9.328 2.082s18.465-2.39 20.68-8.652c4.695-13.279 2.698-24.501 5.402-33.195 2.957-9.509 10.674-15.936 17.697-17.313z" id="d"/></defs><g transform="translate(-6 -53)" stroke="none" stroke-width="1" fill="none" fill-rule="evenodd"><mask id="b" fill="white"><use xlink:href="#a"/></mask><g mask="url(#b)"><path d="M53.853 211.024C260.697 170.477 1037.97 18.166 1051.93 16.248c16.11-2.213 30.12-11.886 121.57 15 91.45 26.887 147.88 22.952 151.48 23.526l99.66-36.395s19.41-8.525 47.72 2.05c28.32 10.574 143.38 24.509 239.83 6.475v241.198H26c5.806-11.693 2.54-.308 4.753-6.57 4.695-13.279 2.699-24.501 5.403-33.195 2.957-9.509 10.673-15.936 17.697-17.313z" fill="url(#c)" fill-rule="nonzero" transform="translate(-24 54)"/><g stroke-width="1" fill="none" fill-rule="evenodd" transform="translate(-24 66)"><mask id="e" fill="white"><use xlink:href="#d"/></mask><g mask="url(#e)"><path d="M1438.44 56.774c14.71-2.377 29.41-8.77 34.42-18.525 5-9.673-11.41-20.247-18.61-21.149-11.01.328-17.61 3.197-17.61 3.197l-99.66 36.395c0 .082 86.75 2.377 101.46.082z" fill="url(#f)" fill-rule="nonzero" transform="translate(-12 -14)"/><path d="M899.746 34.25S1035.82 6.46 1051.93 4.247c16.11-2.213 46.06-22.706 137.51 4.18 91.46 26.887 129.8 14.51 133.4 15.084l101.78-35.074s38.76-6.412 67.07 4.162c28.32 10.575 124.05 24.233 220.5 6.2v142.504H899.746V34.249z" fill="#99CCF2" fill-rule="nonzero" style="mix-blend-mode:color"/><path d="M1494.77 93.17c-73.14 0-179.3 0-321.28-31.723-128.37-28.69-97.85-43.69-90.85-46.314-8 .738-32.13-13.5-37.64-12.762C1028.9 4.583 11.246 211.165 11.246 222.956v45.885H1724l.2-148.621c-25.12-10-156.29-27.05-229.43-27.05z" fill="url(#g)" fill-rule="nonzero" transform="translate(-12 -14)"/><path d="M1724.7 269.819c-.51.527 24.81-107.63-.51-114.597-112.06-30.903-282.85-39.92-342.48-39.92-73.14 0-179.3 0-321.28-31.723-128.373-28.69-96.585-44.391-89.582-47.014-8.004.737-29.38-19.94-34.883-19.203C919.856 19.575-8.496 200.152.172 211.1l10.734 58.72H1724.7z" fill="url(#h)" fill-rule="nonzero" style="mix-blend-mode:multiply" transform="translate(-12 -14)"/><path d="M803 81.219c9.389 0 17-2.753 17-6.148 0-3.395-7.611-6.148-17-6.148s-17 2.753-17 6.148c0 3.395 7.611 6.148 17 6.148z" fill="#003359" fill-rule="evenodd" opacity=".286"/><path d="M894 57.93c6.627 0 12-1.944 12-4.34 0-2.397-5.373-4.34-12-4.34s-12 1.943-12 4.34c0 2.396 5.373 4.34 12 4.34z" fill="#003359" fill-rule="evenodd" opacity=".338"/><path d="M1094 57.93c6.63 0 12-1.944 12-4.34 0-2.397-5.37-4.34-12-4.34s-12 1.943-12 4.34c0 2.396 5.37 4.34 12 4.34zM1214 84.16c6.63 0 12-1.943 12-4.34 0-2.396-5.37-4.339-12-4.339s-12 1.943-12 4.339c0 2.397 5.37 4.34 12 4.34z" fill="#003359" fill-rule="evenodd" opacity=".168"/><path d="M1292 56.772c3.87 0 7-1.133 7-2.531 0-1.398-3.13-2.532-7-2.532s-7 1.134-7 2.532c0 1.398 3.13 2.531 7 2.531z" fill="#003359" fill-rule="evenodd" opacity=".137"/><path d="M1311 52.866c2.76 0 5-.81 5-1.808s-2.24-1.808-5-1.808-5 .81-5 1.808c0 .999 2.24 1.808 5 1.808z" fill="#003359" fill-rule="evenodd" opacity=".086"/><path d="M1506.5 36.014c-3.04 0-5.5-.89-5.5-1.989 0-1.098 2.46-1.989 5.5-1.989s5.5.89 5.5 1.99c0 1.098-2.46 1.988-5.5 1.988z" fill="#003359" fill-rule="evenodd" opacity=".137"/><path d="M1487 33.193c-2.76 0-5-.81-5-1.808 0-.999 2.24-1.808 5-1.808s5 .81 5 1.808c0 .999-2.24 1.808-5 1.808z" fill="#003359" fill-rule="evenodd" opacity=".086"/><path d="M833 73.986c3.866 0 7-1.133 7-2.531 0-1.399-3.134-2.532-7-2.532s-7 1.133-7 2.532c0 1.398 3.134 2.531 7 2.531z" fill="#003359" fill-rule="evenodd" opacity=".29"/><path d="M1162.89 60.79S767.777 189.896 14.809 266.536v3.282H1678.11S1609.29 92.76 1463.55 92.76c-54.91 0-154.39 0-300.66-31.97z" fill-opacity=".28" fill="url(#i)" fill-rule="nonzero" style="mix-blend-mode:multiply" transform="translate(-12 -14)"/><path d="M602 102.58c4.418 0 8-1.296 8-2.894 0-1.597-3.582-2.893-8-2.893s-8 1.296-8 2.893c0 1.598 3.582 2.894 8 2.894z" fill="#003359" fill-rule="evenodd" opacity=".148"/><path d="M1482.77 79.17c-73.14 0-179.3 0-321.28-31.723-128.37-28.69-97.85-43.691-90.85-46.314-8 .738-13.21-5-18.71-4.263C1035.82-.916 1.5 202.617 1.5 208.636v48.001l1710.5-1.796.2-148.621c-25.12-10-156.29-27.05-229.43-27.05z" fill="#003359" fill-rule="nonzero" style="mix-blend-mode:color"/><path d="M1712.69 255.817c-.5.529 24.82-107.628-.5-114.595-112.06-30.903-282.85-39.92-342.48-39.92-73.15 0-179.3 0-321.28-31.723-128.373-28.69-97.856-43.69-90.852-46.314-8.005.738-19.259-11.601-24.762-10.864C916.707 14.615-8.145 199.518.396 208.863l1.537 46.955s474.989-.834 780.812 0c319.675.873 816.385 0 816.385 0h113.56z" fill="#003359" fill-rule="nonzero" style="mix-blend-mode:color"/></g></g><path d="M1253.81 55.695l-210.26 156.888h-60.118L1244.77 55.16l-3.36.535c-169.28 87.653-380.039 198.454-385.304 201.227-5.265 2.774 187.444 0 187.444 0L1254.86 57.85l-1.05-2.155z" fill="url(#j)" fill-rule="evenodd" opacity=".208" transform="translate(-24 54)"/><path d="M1221.88 114.449c5.25 0 9.51-1.42 9.51-3.17s-4.26-3.168-9.51-3.168-9.5 1.419-9.5 3.169 4.25 3.169 9.5 3.169z" fill="#000000" fill-rule="evenodd" opacity=".246"/><path d="M1221.94 62.23s-.18 1.425-1.42 1.61c-1.23.183-1.96-.414-2.61 1.193-.64 1.609-1.28 2.62-1 3.217.27.597.55 2.297.45 2.665-.09.367-.41 1.976-.27 2.343.14.368-1.65 3.262-1.56 4.09.1.826-.87 5.192-.87 5.192s-1.09 1.607-.55 1.883c.55.276.14 2.297.51 2.297.36 0 .64-.551.64-.551s.46.46.64.322.69.183.78-.046c.09-.23.55-.827.59-1.195.05-.367-.68-2.251-.77-2.573-.1-.322.82-3.17 1.37-3.584.55-.413.18.782.14 1.011-.05.23-.46 1.24-.42 2.068.05.827-.13 4.089 0 4.64.14.552.92 3.768.97 4.182.04.413-.14 2.526-.1 2.986.05.46.42 1.654.42 1.654s1.09 7.352.64 8.362c-.46 1.011-1.15 2.62-1.15 2.62l-.99 1.323s-2.73 2.819-2.46 3.049c.28.23 3.37-.377 3.51-.47.14-.091 1.46-.703 1.46-.703s1.14-.305 1.14-.58c0-.276-.05-2.344-.14-2.803-.09-.46 0-1.609.14-2.068.13-.46 2.74-6.34 1.42-8.454-.8-1.273-1.47-3.722-1.47-3.952 0-.23.09-3.17.18-3.675.1-.506.28-3.079.37-3.309.09-.23.6-2.205.78-1.7.18.506 1.46 5.1 1.92 5.468.46.368.18 1.24.32 1.379.14.137 1.28 2.527 1.28 2.527s-.18 4.318 1.06 6.064c.36.51 2.51 7.03 2.56 7.352.05.322.09 5.008.37 5.33.27.321 1.19 1.47 1.46 1.47.28 0 1.69-1.333 1.69-1.562 0-.23-.32-1.884-.68-2.481-.37-.597-1.28-2.85-1.28-3.079 0-.23-.42-2.665-.37-3.078.05-.414.27-5.1-.37-6.433 0 0-.96-3.354-2.29-4.64-.31-.303-.13-5.192-.27-5.606-.14-.413-1.14-4.732-1.1-5.146.05-.413-.69-2.619-1.14-3.17-.46-.552-.05-3.124.23-3.354.27-.23 1.28-1.057 1.46-1.47.18-.414.73-2.252.87-1.655.14.598.78 1.884.92 1.976.13.092 1 1.746.82 2.344-.18.597-.82.918-.69 1.561.14.644.64 2.252.83 3.263.18 1.01.32 2.021-.46 2.251-.78.23-1.74.414-1.79 1.287-.04.873-.04 1.7.28 1.838.32.137.14.78.41.78.28 0 .78-.367.96-.183.19.184.64-.092 1.15-.092.5 0 1-.322.91-.735-.09-.414.09-.781.09-1.195 0-.413-.09-.689.05-1.424s.87-3.814.78-4.32c-.09-.505.23-3.262.09-3.491-.14-.23-1.05-1.286-.96-1.792.09-.505.23-2.022.09-2.757-.14-.735-.37-2.067-.23-2.343.14-.276.28-1.057.28-1.057s-1.42-3.676-3.94-3.584c-.32.012-1.6-.551-1.7-.689-.09-.138-.09-1.149-.22-1.332-.14-.184-.55-.92-.55-.92l-3.21 1.655z" fill="#242C33" fill-rule="evenodd"/><path d="M1216.74 60.054a6.053 6.053 0 016.05-6.054 6.055 6.055 0 11-6.05 6.054M1210.79 85.136a2.381 2.381 0 014.76 0 2.381 2.381 0 01-4.76 0M1211.36 90.325a1.345 1.345 0 112.69 0 1.345 1.345 0 01-2.69 0" fill="#242C33" fill-rule="evenodd"/><path d="M1212.7 90.325v-4.036h-1.34l.08.17c.55 1.152.83 2.48.8 3.828v.038h.46zM1212.7 90.325v-4.036h2.02c-.55 1.151-1.38 2.688-1.35 4.036H1212.7z" fill="#242C33" fill-rule="evenodd"/></g></g></svg>