<svg width="367" height="491" viewBox="0 0 367 491" fill="none" xmlns="http://www.w3.org/2000/svg"><path opacity=".427" fill-rule="evenodd" clip-rule="evenodd" d="M183.943 309.142l6.49-11.9 3.414-1.757 5.307-1.507 9.733-5.369 5.886-9.195h10.529l5.256-8.28 7.67-2.91 9.126-2.613h3.187l1.959-10.871 6.164-.772 4.878 3.233-2.001-12.388 9.658.915 4.726 3.325.481-6.454 7.92-6.172 9.242 6.97v-8.276l5.546-2.614 6.54-4.791 6.464-2.661 4.866 2.661v-8.104l6.125-2.827L328.763 203l25.192 4.244 1.098.788L367 216.785V491H167l10.571-126.418 6.372-55.44z" fill="#043155"/></svg>